Patient4_TMGait_0pt5_02_left_28_GRF.mot
version=1
nRows=45
nColumns=19
inDegrees=no
endheader
time	F1x	F1y	F1z	M1x	M1y	M1z	F2x	F2y	F2z	M2x	M2y	M2z	EC1x	EC1y	EC1z	EC2x	EC2y	EC2z
35.8	-10.5949	-2.6112	-1.1171	2.425	-3.1802	-11.8088	-56.6011	812.4272	-64.2848	319.0429	83.5943	754.8542	-0.0592	0.0182	-0.0073	-0.0462	0.0165	0.9585
35.8136	-7.1512	-0.91618	-0.70257	1.3163	-2.1796	-7.0029	-49.3791	799.9529	-63.9774	314.0988	79.8346	740.3553	-0.0592	0.0182	-0.0073	-0.0462	0.0165	0.9585
35.8273	-4.2219	0.47496	-0.35138	0.39806	-1.3413	-3.0078	-41.7016	785.3648	-62.8848	308.4182	75.1831	722.9691	-0.0592	0.0182	-0.0073	-0.0462	0.0165	0.9585
35.8409	-1.9815	1.5112	-0.082924	-0.29036	-0.70879	-0.017915	-33.8528	769.7246	-61.0384	302.4503	69.8185	703.7246	-0.0592	0.0182	-0.0073	-0.0462	0.0165	0.9585
35.8546	-0.44451	2.2219	0.096555	-0.76236	-0.27467	2.0274	-26.0055	754.3231	-58.5799	296.7133	63.9517	683.9113	-0.0592	0.0182	-0.0073	-0.0462	0.0165	0.9585
35.8682	0.49324	2.6541	0.20544	-1.0519	-0.013068	3.2796	-18.2948	740.4796	-55.7568	291.7169	57.8596	664.8764	-0.0592	0.0182	-0.0073	-0.0462	0.0165	0.9585
35.8819	0.95744	2.8607	0.25521	-1.1991	0.11684	3.9243	-10.8284	729.3448	-52.8168	287.8895	51.7965	647.8072	-0.0592	0.0182	-0.0073	-0.0462	0.0165	0.9585
35.8955	1.0736	2.8825	0.27291	-1.2365	0.13909	4.1187	-3.7067	721.7567	-50.0118	285.5266	46.0094	633.6145	-0.0592	0.0182	-0.0073	-0.0462	0.0165	0.9585
35.9091	0.95917	2.7351	0.27108	-1.1863	0.085831	3.9685	2.9535	718.1541	-47.5225	284.7627	40.6838	622.8551	-0.0592	0.0182	-0.0073	-0.0462	0.0165	0.9585
35.9228	0.68977	2.4096	0.27022	-1.0539	-0.029681	3.5425	9.0339	718.5004	-45.5029	285.546	35.9886	615.6524	-0.0592	0.0182	-0.0073	-0.0462	0.0165	0.9585
35.9364	0.34267	1.861	0.27497	-0.83112	-0.17953	2.8417	14.4285	722.3002	-44.0279	287.644	32.0227	611.722	-0.0592	0.0182	-0.0073	-0.0462	0.0165	0.9585
35.9501	-0.032229	1.0404	0.3006	-0.50545	-0.35739	1.8577	19.0692	728.6722	-43.1296	290.6748	28.8388	610.4272	-0.0592	0.0182	-0.0073	-0.0462	0.0165	0.9585
35.9637	-0.37155	-0.095809	0.3356	-0.065878	-0.52964	0.56361	22.9161	736.446	-42.7678	294.1505	26.4209	610.8641	-0.0592	0.0182	-0.0073	-0.0462	0.0165	0.9585
35.9774	-0.59227	-1.5557	0.37414	0.48757	-0.65814	-1.0433	25.9511	744.2917	-42.8683	297.5283	24.7168	611.9878	-0.0592	0.0182	-0.0073	-0.0462	0.0165	0.9585
35.991	-0.59406	-3.2581	0.38849	1.1257	-0.67387	-2.8786	28.2036	750.8423	-43.3177	300.2591	23.6266	612.7062	-0.0592	0.0182	-0.0073	-0.0462	0.0165	0.9585
36.0046	-0.22103	-4.993	0.35483	1.7713	-0.49234	-4.7424	29.7137	754.8468	-44.0033	301.8461	23.0467	612.0107	-0.0592	0.0182	-0.0073	-0.0462	0.0165	0.9585
36.0183	0.70522	-6.3395	0.23468	2.2699	-0.0064085	-6.2089	30.5379	755.3991	-44.8287	301.9319	22.8795	609.1473	-0.0592	0.0182	-0.0073	-0.0462	0.0165	0.9585
36.0319	2.4017	-6.6203	-0.010322	2.368	0.89906	-6.5921	30.7633	752.1961	-45.7305	300.3991	23.0441	603.83	-0.0592	0.0182	-0.0073	-0.0462	0.0165	0.9585
36.0456	5.0646	-4.8587	-0.42172	1.6994	2.3362	-4.8851	30.4982	745.6681	-46.6766	297.4239	23.4721	596.3454	-0.0592	0.0182	-0.0073	-0.0462	0.0165	0.9585
36.0592	8.8047	0.23821	-1.0414	-0.21872	4.3929	0.26289	29.913	736.8442	-47.668	293.4257	24.0981	587.4123	-0.0592	0.0182	-0.0073	-0.0462	0.0165	0.9585
36.0729	13.5661	10.2033	-1.8868	-3.9567	7.0708	10.462	29.1991	727.0696	-48.7116	288.9495	24.8496	577.9982	-0.0592	0.0182	-0.0073	-0.0462	0.0165	0.9585
36.0865	18.9698	26.6195	-2.9412	-10.1003	10.2107	27.3951	28.5585	717.5984	-49.8015	284.5068	25.6385	569	-0.0592	0.0182	-0.0073	-0.0462	0.0165	0.9585
36.1001	24.1655	50.7242	-4.1105	-19.1035	13.3917	52.3985	28.1502	709.172	-50.8965	280.409	26.367	560.9265	-0.0592	0.0182	-0.0073	-0.0462	0.0165	0.9585
36.1138	27.6209	82.8066	-5.1876	-31.0646	15.8222	85.8526	28.0494	701.7503	-51.9192	276.6641	26.9509	553.712	-0.0592	0.0182	-0.0073	-0.0462	0.0165	0.9585
36.1274	27.2212	121.644	-5.7859	-45.5173	16.3199	126.6101	28.2858	694.4863	-52.7424	272.971	27.293	546.6767	-0.0592	0.0182	-0.0073	-0.0462	0.0165	0.9585
36.1411	21.7931	165.1072	-5.4684	-61.6489	13.9987	172.5821	28.8273	685.9763	-53.1934	268.8153	27.2846	538.7269	-0.0592	0.0182	-0.0073	-0.0462	0.0165	0.9585
36.1547	12.4305	210.8438	-3.8593	-78.5433	8.8527	221.3069	29.6142	674.4826	-53.0882	263.5568	26.8162	528.5062	-0.0592	0.0182	-0.0073	-0.0462	0.0165	0.9585
36.1684	1.1248	255.0484	-0.58925	-94.7659	1.2323	268.5564	30.5468	658.1166	-52.3041	256.4973	25.8402	514.5456	-0.0592	0.0182	-0.0073	-0.0462	0.0165	0.9585
36.182	-10.1702	293.648	4.1668	-108.8399	-7.914	309.7279	31.4805	635.1669	-50.7704	247.0013	24.3645	495.5196	-0.0592	0.0182	-0.0073	-0.0462	0.0165	0.9585
36.1956	-20.2329	325.5534	9.4513	-120.4106	-17.0892	343.4751	32.2571	604.5615	-48.4791	234.6676	22.4465	470.6054	-0.0592	0.0182	-0.0073	-0.0462	0.0165	0.9585
36.2093	-28.6921	352.8217	14.465	-130.282	-25.3089	371.8427	32.7088	566.1116	-45.5091	219.4218	20.2031	439.69	-0.0592	0.0182	-0.0073	-0.0462	0.0165	0.9585
36.2229	-35.5964	378.8286	18.671	-139.7271	-32.0394	398.3322	32.6831	520.411	-41.9725	201.4821	17.765	403.2702	-0.0592	0.0182	-0.0073	-0.0462	0.0165	0.9585
36.2366	-40.9383	406.5467	21.8666	-149.84	-37.0956	425.9784	31.9884	468.608	-37.9542	181.2766	15.2529	362.2932	-0.0592	0.0182	-0.0073	-0.0462	0.0165	0.9585
36.2502	-44.7226	437.7408	24.2674	-161.2278	-40.7274	456.5836	30.3945	412.236	-33.5483	159.3801	12.8057	318.0174	-0.0592	0.0182	-0.0073	-0.0462	0.0165	0.9585
36.2639	-47.0613	472.9641	26.3361	-174.0209	-43.4784	490.7265	27.7442	353.143	-28.903	136.4848	10.5782	271.909	-0.0592	0.0182	-0.0073	-0.0462	0.0165	0.9585
36.2775	-48.198	511.691	28.7866	-187.9385	-46.1797	527.9034	23.9937	293.4697	-24.2288	113.3924	8.7305	225.6341	-0.0592	0.0182	-0.0073	-0.0462	0.0165	0.9585
36.2911	-48.5035	552.6903	32.1645	-202.4634	-49.5174	566.9258	19.3217	235.5371	-19.7546	90.9806	7.3531	180.9483	-0.0592	0.0182	-0.0073	-0.0462	0.0165	0.9585
36.3048	-48.2643	594.4445	36.6982	-217.0233	-53.814	606.2792	14.1563	181.6632	-15.6829	70.1353	6.4207	139.5625	-0.0592	0.0182	-0.0073	-0.0462	0.0165	0.9585
36.3184	-47.6499	635.4626	42.134	-231.1114	-58.8583	644.4508	9.0825	133.8495	-12.1343	51.6286	5.7894	102.9369	-0.0592	0.0182	-0.0073	-0.0462	0.0165	0.9585
36.3321	-46.6846	674.315	47.8739	-244.2831	-64.0465	679.98	4.6746	93.3968	-9.1285	35.971	5.2576	71.9872	-0.0592	0.0182	-0.0073	-0.0462	0.0165	0.9585
36.3457	-45.3027	709.5553	53.1859	-256.1029	-68.6196	711.4126	1.263	60.8112	-6.6125	23.3669	4.6695	47.0665	-0.0592	0.0182	-0.0073	-0.0462	0.0165	0.9585
36.3594	-43.4542	739.7251	57.5316	-266.1108	-72.0177	737.3468	-1.044	35.9064	-4.5176	13.7509	3.9497	28.0138	-0.0592	0.0182	-0.0073	-0.0462	0.0165	0.9585
36.373	-41.1073	763.5335	60.679	-273.8805	-73.9884	756.5706	-2.2991	18.0183	-2.8065	6.8638	3.1063	14.3242	-0.0592	0.0182	-0.0073	-0.0462	0.0165	0.9585
36.3866	-38.2851	780.1055	62.6859	-279.1059	-74.5881	768.342	-2.6923	6.1809	-1.4628	2.3231	2.2102	5.2642	-0.0592	0.0182	-0.0073	-0.0462	0.0165	0.9585
36.4003	-35.0593	789.1799	63.7487	-281.6847	-74.0378	772.555	-2.5201	-0.78242	-0.49913	-0.33569	1.3943	-0.081158	-0.0592	0.0182	-0.0073	-0.0462	0.0165	0.9585
